<svg width="844" height="400" viewBox="0 0 844 400" fill="none" xmlns="http://www.w3.org/2000/svg">
<rect width="844" height="400" fill="black"/>
<path d="M629.35 286V114H692.499C711.501 114 726.162 118.095 736.482 126.286C746.802 134.312 751.962 145.37 751.962 159.457C751.962 169.777 749.259 178.05 743.853 184.274C738.611 190.335 731.485 194.594 722.476 197.051C729.356 198.198 735.499 200.328 740.905 203.44C746.31 206.552 750.569 210.893 753.682 216.463C756.958 221.869 758.596 228.667 758.596 236.857C758.596 252.091 753.108 264.131 742.133 272.977C731.322 281.659 715.514 286 694.71 286H629.35ZM657.607 262.166H694.956C706.259 262.166 714.859 259.954 720.756 255.531C726.653 250.945 729.602 244.638 729.602 236.611C729.602 228.257 726.571 221.787 720.51 217.2C714.449 212.613 705.931 210.32 694.956 210.32H657.607V262.166ZM657.607 186.977H693.236C703.064 186.977 710.6 184.766 715.842 180.343C721.084 175.92 723.705 169.859 723.705 162.16C723.705 154.461 721.084 148.482 715.842 144.223C710.6 139.8 703.064 137.589 693.236 137.589H657.607V186.977Z" fill="white"/>
<path d="M489.588 286V263.851L556.534 206.86C561.843 202.381 566.571 197.984 570.719 193.67C574.867 189.357 578.102 184.877 580.425 180.232C582.748 175.42 583.909 170.277 583.909 164.802C583.909 154.847 580.84 147.215 574.701 141.906C568.728 136.597 560.764 133.942 550.81 133.942C540.855 133.942 532.808 137.095 526.67 143.399C520.531 149.704 517.461 158.248 517.461 169.033V172.019H489.837V167.539C489.837 156.423 492.326 146.635 497.303 138.173C502.281 129.546 509.332 122.743 518.457 117.766C527.748 112.789 538.532 110.3 550.81 110.3C563.917 110.3 574.95 112.54 583.909 117.019C593.034 121.499 599.919 127.721 604.565 135.684C609.376 143.648 611.782 152.939 611.782 163.558C611.782 172.185 610.206 179.9 607.054 186.702C603.901 193.339 599.505 199.643 593.864 205.616C588.389 211.423 582.084 217.313 574.95 223.286L528.66 261.86H613.026V286H489.588Z" fill="white"/>
<path d="M358 286V114H470.292V139.063H386.257V186.731H455.549V211.057H386.257V260.937H473.24V286H358Z" fill="white"/>
<path fill-rule="evenodd" clip-rule="evenodd" d="M272.212 241.998C270.672 241.998 269.71 243.665 270.48 244.998L286.585 272.894C287.476 274.437 286.056 276.287 284.335 275.826L235.491 262.737C233.357 262.165 231.163 263.432 230.592 265.566L217.504 314.411C217.042 316.132 214.731 316.436 213.84 314.893L197.732 286.992C196.962 285.659 195.037 285.659 194.268 286.992L178.16 314.893C177.269 316.436 174.957 316.132 174.496 314.411L161.407 265.566C160.836 263.432 158.642 262.165 156.508 262.737L107.664 275.826C105.943 276.287 104.523 274.437 105.414 272.894L121.519 244.998C122.289 243.665 121.327 241.998 119.787 241.998L87.5789 241.998C85.7971 241.998 84.9048 239.844 86.1648 238.584L121.922 202.827C123.484 201.265 123.484 198.733 121.922 197.171L86.1648 161.413C84.9048 160.153 85.7972 157.999 87.579 157.999L119.784 157.999C121.323 157.999 122.286 156.333 121.516 154.999L105.414 127.11C104.523 125.567 105.943 123.717 107.664 124.178L156.508 137.267C158.642 137.838 160.836 136.572 161.407 134.438L174.496 85.5929C174.957 83.8718 177.269 83.5675 178.16 85.1106L194.267 113.011C195.037 114.345 196.962 114.345 197.732 113.011L213.84 85.1106C214.73 83.5675 217.042 83.8718 217.503 85.5929L230.592 134.438C231.163 136.572 233.357 137.838 235.491 137.267L284.335 124.178C286.056 123.717 287.476 125.567 286.585 127.11L270.483 154.999C269.713 156.333 270.676 157.999 272.215 157.999L304.421 157.999C306.203 157.999 307.095 160.153 305.835 161.413L270.078 197.171C268.516 198.733 268.516 201.265 270.078 202.827L305.835 238.584C307.095 239.844 306.203 241.998 304.421 241.998L272.212 241.998ZM259.919 165.331C261.366 163.884 259.963 161.455 257.987 161.985L214.491 173.64C212.357 174.211 210.164 172.945 209.592 170.811L197.931 127.293C197.402 125.317 194.597 125.317 194.068 127.293L182.407 170.811C181.835 172.945 179.642 174.211 177.508 173.64L134.014 161.985C132.037 161.455 130.635 163.884 132.082 165.331L163.922 197.171C165.484 198.733 165.484 201.266 163.922 202.828L132.074 234.675C130.627 236.122 132.03 238.55 134.006 238.021L177.508 226.364C179.642 225.792 181.835 227.059 182.407 229.192L194.068 272.711C194.597 274.687 197.402 274.687 197.931 272.711L209.592 229.192C210.164 227.059 212.357 225.792 214.491 226.364L257.994 238.021C259.971 238.551 261.373 236.122 259.926 234.675L228.079 202.828C226.516 201.266 226.516 198.733 228.079 197.171L259.919 165.331Z" fill="white"/>
</svg>
