<svg width="4" height="4" viewBox="0 0 4 4" fill="none" xmlns="http://www.w3.org/2000/svg">
<g clip-path="url(#clip0_375_7175)">
<path d="M3.5 1.5C3.5 1.77614 3.27614 2 3 2C2.72386 2 2.5 1.77614 2.5 1.5C2.5 1.22386 2.72386 1 3 1C3.27614 1 3.5 1.22386 3.5 1.5Z" fill="#D6D6D6" style="fill:#D6D6D6;fill:color(display-p3 0.8400 0.8400 0.8400);fill-opacity:1;"/>
<path d="M1.5 2.5C1.5 2.77614 1.27614 3 1 3C0.723858 3 0.5 2.77614 0.5 2.5C0.5 2.22386 0.723858 2 1 2C1.27614 2 1.5 2.22386 1.5 2.5Z" fill="#D6D6D6" style="fill:#D6D6D6;fill:color(display-p3 0.8400 0.8400 0.8400);fill-opacity:1;"/>
<path d="M1.5 0.5C1.5 0.776142 1.27614 1 1 1C0.723858 1 0.5 0.776142 0.5 0.5C0.5 0.223858 0.723858 0 1 0C1.27614 0 1.5 0.223858 1.5 0.5Z" fill="#D6D6D6" style="fill:#D6D6D6;fill:color(display-p3 0.8400 0.8400 0.8400);fill-opacity:1;"/>
<path d="M3.5 3.5C3.5 3.77614 3.27614 4 3 4C2.72386 4 2.5 3.77614 2.5 3.5C2.5 3.22386 2.72386 3 3 3C3.27614 3 3.5 3.22386 3.5 3.5Z" fill="#D6D6D6" style="fill:#D6D6D6;fill:color(display-p3 0.8400 0.8400 0.8400);fill-opacity:1;"/>
</g>
<defs>
<clipPath id="clip0_375_7175">
<rect width="4" height="4" fill="white" style="fill:white;fill-opacity:1;"/>
</clipPath>
</defs>
</svg>
