<svg xmlns="http://www.w3.org/2000/svg" width="146" height="48" fill="none" viewBox="0 0 146 48"><path fill="#3A3A3A" d="M21.976 47.64c-4.395 0-8.213-.704-11.456-2.112-3.2-1.408-5.696-3.435-7.488-6.08-1.75-2.645-2.624-5.845-2.624-9.6 0-3.925.896-7.232 2.688-9.92 1.835-2.73 4.352-4.8 7.552-6.208 3.243-1.45 6.976-2.176 11.2-2.176 4.65 0 8.576.832 11.776 2.496 3.243 1.664 5.653 4.075 7.232 7.232 1.579 3.157 2.197 6.976 1.856 11.456h-28.16c.043 1.152.363 2.155.96 3.008.64.853 1.536 1.515 2.688 1.984 1.152.427 2.539.64 4.16.64 1.75 0 3.285-.256 4.608-.768 1.323-.555 2.176-1.237 2.56-2.048H42.84c-.256 2.39-1.323 4.501-3.2 6.336-1.877 1.835-4.33 3.264-7.36 4.288-3.03.981-6.464 1.472-10.304 1.472Zm-7.808-21.632-.448-.64H29.4l-.576.576c-.085-.981-.384-1.856-.896-2.624s-1.28-1.365-2.304-1.792c-.981-.427-2.261-.64-3.84-.64-1.408 0-2.645.192-3.712.576-1.067.341-1.941.896-2.624 1.664-.64.768-1.067 1.728-1.28 2.88ZM51.868 47v-2.112c0-2.56.447-4.821 1.343-6.784a17.602 17.602 0 0 1 3.584-5.184 30.273 30.273 0 0 1 4.928-4.096 74.685 74.685 0 0 1 5.377-3.392 131.226 131.226 0 0 0 4.928-3.072c1.493-.981 2.688-2.005 3.584-3.072.895-1.067 1.344-2.24 1.344-3.52 0-1.11-.278-1.984-.832-2.624a4.323 4.323 0 0 0-1.92-1.472c-.726-.299-1.408-.448-2.048-.448-1.323 0-2.433.235-3.329.704a5.137 5.137 0 0 0-2.111 2.048c-.47.853-.79 1.877-.96 3.072H52.058c.427-3.84 1.494-6.976 3.2-9.408 1.707-2.475 4.011-4.31 6.913-5.504C65.072.941 68.55.344 72.603.344c3.969 0 7.34.64 10.113 1.92 2.773 1.237 4.885 2.987 6.336 5.248 1.45 2.261 2.175 4.907 2.175 7.936 0 1.877-.298 3.584-.895 5.12a16.349 16.349 0 0 1-2.432 4.16 19.278 19.278 0 0 1-3.393 3.328 35.182 35.182 0 0 1-3.904 2.688 75.218 75.218 0 0 1-3.903 2.24 119.64 119.64 0 0 0-3.457 1.792c-1.023.512-1.834 1.024-2.431 1.536h20.352V47H51.867Zm76.582.512c-2.006 0-3.798-.213-5.376-.64-1.536-.427-2.859-1.024-3.968-1.792-1.067-.768-1.942-1.643-2.624-2.624h-.448L115.586 47H102.21V.344h14.144V16.6h.448c1.109-1.621 2.709-2.859 4.8-3.712 2.09-.896 4.373-1.344 6.848-1.344 2.56 0 4.864.427 6.912 1.28 2.09.81 3.861 2.005 5.312 3.584 1.493 1.579 2.645 3.477 3.456 5.696.81 2.176 1.216 4.65 1.216 7.424 0 3.67-.704 6.848-2.112 9.536-1.408 2.688-3.371 4.779-5.888 6.272-2.518 1.45-5.483 2.176-8.896 2.176Zm-4.48-10.56c1.45 0 2.709-.277 3.776-.832a6.176 6.176 0 0 0 2.56-2.56c.597-1.11.896-2.453.896-4.032 0-1.237-.171-2.304-.512-3.2-.342-.939-.832-1.707-1.472-2.304a5.801 5.801 0 0 0-2.304-1.408c-.854-.341-1.835-.512-2.944-.512-1.579 0-2.944.299-4.096.896-1.152.597-2.027 1.43-2.624 2.496-.598 1.024-.896 2.24-.896 3.648v.704c0 1.365.298 2.603.896 3.712.597 1.067 1.472 1.899 2.624 2.496 1.152.597 2.517.896 4.096.896Z"/></svg>