<svg width="218" height="71" viewBox="0 0 218 71" fill="none" xmlns="http://www.w3.org/2000/svg">
<path d="M32.464 70.96C25.872 70.96 20.144 69.904 15.28 67.792C10.48 65.68 6.736 62.64 4.048 58.672C1.424 54.704 0.112 49.904 0.112 44.272C0.112 38.384 1.456 33.424 4.144 29.392C6.896 25.296 10.672 22.192 15.472 20.08C20.336 17.904 25.936 16.816 32.272 16.816C39.248 16.816 45.136 18.064 49.936 20.56C54.8 23.056 58.416 26.672 60.784 31.408C63.152 36.144 64.08 41.872 63.568 48.592H21.328C21.392 50.32 21.872 51.824 22.768 53.104C23.728 54.384 25.072 55.376 26.8 56.08C28.528 56.72 30.608 57.04 33.04 57.04C35.664 57.04 37.968 56.656 39.952 55.888C41.936 55.056 43.216 54.032 43.792 52.816H63.76C63.376 56.4 61.776 59.568 58.96 62.32C56.144 65.072 52.464 67.216 47.92 68.752C43.376 70.224 38.224 70.96 32.464 70.96ZM20.752 38.512L20.08 37.552H43.6L42.736 38.416C42.608 36.944 42.16 35.632 41.392 34.48C40.624 33.328 39.472 32.432 37.936 31.792C36.464 31.152 34.544 30.832 32.176 30.832C30.064 30.832 28.208 31.12 26.608 31.696C25.008 32.208 23.696 33.04 22.672 34.192C21.712 35.344 21.072 36.784 20.752 38.512ZM77.3012 70V66.832C77.3012 62.992 77.9732 59.6 79.3172 56.656C80.6612 53.712 82.4532 51.12 84.6933 48.88C86.9332 46.576 89.3973 44.528 92.0853 42.736C94.7733 40.88 97.4613 39.184 100.149 37.648C102.837 36.048 105.301 34.512 107.541 33.04C109.781 31.568 111.573 30.032 112.917 28.432C114.261 26.832 114.933 25.072 114.933 23.152C114.933 21.488 114.517 20.176 113.685 19.216C112.917 18.192 111.957 17.456 110.805 17.008C109.717 16.56 108.693 16.336 107.733 16.336C105.749 16.336 104.085 16.688 102.741 17.392C101.397 18.096 100.341 19.12 99.5733 20.464C98.8693 21.744 98.3893 23.28 98.1333 25.072H77.5892C78.2292 19.312 79.8292 14.608 82.3892 10.96C84.9492 7.248 88.4053 4.496 92.7573 2.704C97.1093 0.911997 102.325 0.0159969 108.405 0.0159969C114.357 0.0159969 119.413 0.975996 123.573 2.89599C127.733 4.752 130.901 7.376 133.077 10.768C135.253 14.16 136.341 18.128 136.341 22.672C136.341 25.488 135.893 28.048 134.997 30.352C134.101 32.592 132.885 34.672 131.349 36.592C129.877 38.448 128.181 40.112 126.261 41.584C124.405 43.056 122.453 44.4 120.405 45.616C118.421 46.832 116.469 47.952 114.549 48.976C112.629 49.936 110.901 50.832 109.365 51.664C107.829 52.432 106.613 53.2 105.717 53.968H136.245V70H77.3012ZM192.174 70.768C189.166 70.768 186.478 70.448 184.11 69.808C181.806 69.168 179.822 68.272 178.158 67.12C176.558 65.968 175.246 64.656 174.222 63.184H173.55L172.878 70H152.814V0.0159969H174.03V24.4H174.702C176.366 21.968 178.766 20.112 181.902 18.832C185.038 17.488 188.462 16.816 192.174 16.816C196.014 16.816 199.47 17.456 202.542 18.736C205.678 19.952 208.334 21.744 210.51 24.112C212.75 26.48 214.478 29.328 215.694 32.656C216.91 35.92 217.518 39.632 217.518 43.792C217.518 49.296 216.462 54.064 214.35 58.096C212.238 62.128 209.294 65.264 205.518 67.504C201.742 69.68 197.294 70.768 192.174 70.768ZM185.454 54.928C187.63 54.928 189.518 54.512 191.118 53.68C192.782 52.784 194.062 51.504 194.958 49.84C195.854 48.176 196.302 46.16 196.302 43.792C196.302 41.936 196.046 40.336 195.534 38.992C195.022 37.584 194.286 36.432 193.326 35.536C192.366 34.576 191.214 33.872 189.87 33.424C188.59 32.912 187.118 32.656 185.454 32.656C183.086 32.656 181.038 33.104 179.31 34C177.582 34.896 176.27 36.144 175.374 37.744C174.478 39.28 174.03 41.104 174.03 43.216V44.272C174.03 46.32 174.478 48.176 175.374 49.84C176.27 51.44 177.582 52.688 179.31 53.584C181.038 54.48 183.086 54.928 185.454 54.928Z" fill="#C4C4C4"/>
</svg>
